# xmcd CD database file
#
# Track frame offsets:
#	150
#	18447
#	36710
#	59340
#	78390
#	99655
#	125995
#	145382
#	160115
#	196410
#
# Disc length: 2921 seconds
#
# Revision: 0
# Processed by: cddbd v1.5.2PL0 Copyright (c) Steve Scherf et al.
# Submitted via: CDex 1.70beta2
#
DISCID=920b670a
DTITLE=PE'Z - 黒船のジャズ
DYEAR=2008
DGENRE=Jazz
TTITLE0=Milestones
TTITLE1=Autumn Leaves
TTITLE2=Chameleon
TTITLE3=My Favorite Things
TTITLE4=Watermelon Man
TTITLE5=Summertime
TTITLE6=Old Devil Moon
TTITLE7=Soul Bossa Nova
TTITLE8=My Funny Valentine
TTITLE9=Freedom Jazz Dance
EXTD=YEAR: 2008
EXTT0=
EXTT1=
EXTT2=
EXTT3=
EXTT4=
EXTT5=
EXTT6=
EXTT7=
EXTT8=
EXTT9=
PLAYORDER=
